<svg xmlns="http://www.w3.org/2000/svg" viewBox="0 0 208.31 199.46"><defs><style>.cls-1{fill:#ff9500;}.cls-2{fill:#ffdf00;}.cls-3{fill:#fedf00;}</style></defs><title>bees</title><g id="Layer_2" data-name="Layer 2"><g id="Layer_1-2" data-name="Layer 1"><path d="M58.52,117.68a1.72,1.72,0,1,0,1.72,1.72A1.72,1.72,0,0,0,58.52,117.68Zm11.76,0A1.72,1.72,0,1,0,72,119.4,1.72,1.72,0,0,0,70.28,117.68Zm-2.87,5.8a1,1,0,0,0-1,1,2,2,0,1,1-4,0,1,1,0,0,0-2,0,4,4,0,1,0,8,0A1,1,0,0,0,67.41,123.48Z"/><circle class="cls-1" cx="72.88" cy="125.99" r="2.03"/><circle class="cls-1" cx="55.91" cy="125.99" r="2.03"/><path class="cls-2" d="M54.7,112.14a1.31,1.31,0,0,0-1.81.4,18.23,18.23,0,0,0-1.68,3.36,1.31,1.31,0,1,0,2.46.92,15.57,15.57,0,0,1,1.44-2.88A1.31,1.31,0,0,0,54.7,112.14Zm48.94,21.71a1.31,1.31,0,1,0,1.47,2.17,18.2,18.2,0,0,0,6.87-8.67,1.31,1.31,0,1,0-2.45-.93A15.59,15.59,0,0,1,103.64,133.84ZM68.32,104.06a18.28,18.28,0,0,0-11.7,4.24,1.31,1.31,0,0,0,1.68,2,15.65,15.65,0,0,1,10-3.63,1.31,1.31,0,0,0,0-2.62ZM117.52,120A23,23,0,0,0,95,99.11H92.42l7.25-2.81a6.54,6.54,0,0,0,4.1-4.56,6.29,6.29,0,0,0-2.49-6.6,6.36,6.36,0,0,0-7.77.3,6,6,0,0,0-.63-1.84,6.43,6.43,0,0,0-6.62-3.26A6.93,6.93,0,0,0,80.71,87v12.1H69.35c-10.42,0-21,8.27-23,18.5-2.81,14.37,8.25,27.5,22.22,27.5H95a23,23,0,0,0,22.54-20.62l3.49-2.26ZM77.88,142.11H69c-10.41,0-19.43-7.77-20.38-18.13a20,20,0,0,1,19.91-21.87H78a84.67,84.67,0,0,1,2.39,19.8A84.75,84.75,0,0,1,77.88,142.11Zm16.71-54a3.69,3.69,0,0,1,5.14-.85,3.69,3.69,0,0,1-.82,6.43L87.39,98.13ZM83.71,86.55a3.69,3.69,0,0,1,3.68-3.69,3.69,3.69,0,0,1,3.08,5.7l-5.1,7.8-1.67,2.32Zm6.72,55.56h-5.7a90.24,90.24,0,0,0,.09-40h5.7a83.12,83.12,0,0,1-.1,40Zm6.87-.22a90.23,90.23,0,0,0,.1-39.69,20,20,0,0,1-.1,39.69Z"/><path class="cls-3" d="M144.51,33.84a.8.8,0,1,0,.8.8A.8.8,0,0,0,144.51,33.84Zm5.48,0a.8.8,0,1,0,.8.8A.8.8,0,0,0,150,33.84Zm-1.34,2.68a.46.46,0,0,0-.47.46.94.94,0,0,1-1.88,0,.47.47,0,0,0-.93,0,1.87,1.87,0,0,0,3.75,0A.46.46,0,0,0,148.66,36.53Z"/><ellipse class="cls-3" cx="151.21" cy="37.69" rx="0.95" ry="0.94"/><ellipse class="cls-3" cx="143.3" cy="37.69" rx="0.95" ry="0.94"/><path class="cls-3" d="M149.08,27.54a8.56,8.56,0,0,0-5.46,2,.6.6,0,0,0-.08.85.61.61,0,0,0,.86.08,7.33,7.33,0,0,1,4.67-1.68.61.61,0,1,0,0-1.21Zm-6.35,3.74a.61.61,0,0,0-.84.19,8.42,8.42,0,0,0-.78,1.56.61.61,0,0,0,.36.78.61.61,0,0,0,.79-.35,7.18,7.18,0,0,1,.67-1.33A.6.6,0,0,0,142.73,31.28Zm22.81,10a.6.6,0,0,0-.16.84.61.61,0,0,0,.85.16,8.43,8.43,0,0,0,3.2-4,.61.61,0,0,0-.35-.78.61.61,0,0,0-.79.35A7.22,7.22,0,0,1,165.55,41.32ZM172,34.91a10.67,10.67,0,0,0-10.52-9.66h-1.19L163.7,24a3,3,0,0,0,1.91-2.11,2.9,2.9,0,0,0-1.16-3.05,3,3,0,0,0-3.62.14,2.75,2.75,0,0,0-.29-.85,3,3,0,0,0-3.09-1.51,3.21,3.21,0,0,0-2.59,3.09v5.6h-5.29c-4.86,0-9.79,3.83-10.72,8.56A10.67,10.67,0,0,0,149.2,46.53h12.3A10.67,10.67,0,0,0,172,37l1.63-1ZM153.54,45.15h-4.12a9.44,9.44,0,0,1-9.5-8.39,9.29,9.29,0,0,1,9.28-10.12h4.38a38.18,38.18,0,0,1,0,18.51Zm7.79-25a1.73,1.73,0,0,1,2.4-.39,1.7,1.7,0,0,1-.38,3L158,24.79Zm-5.07-.71a1.72,1.72,0,0,1,3.23-.81,1.67,1.67,0,0,1-.07,1.74L157,24l-.78,1.07Zm3.13,25.71h-2.66a41.45,41.45,0,0,0,0-18.51h2.66a38.18,38.18,0,0,1,0,18.51Zm3.2-.1a41.45,41.45,0,0,0,0-18.36,9.24,9.24,0,0,1,0,18.36Z"/><path class="cls-3" d="M5.88,96.12a.8.8,0,1,0,.8.8A.8.8,0,0,0,5.88,96.12Zm5.48,0a.8.8,0,1,0,.8.8A.8.8,0,0,0,11.36,96.12ZM10,98.81a.46.46,0,0,0-.47.46.94.94,0,0,1-1.88,0,.47.47,0,0,0-.93,0,1.87,1.87,0,0,0,3.75,0A.46.46,0,0,0,10,98.81Z"/><ellipse class="cls-3" cx="12.57" cy="99.97" rx="0.95" ry="0.94"/><ellipse class="cls-3" cx="4.66" cy="99.97" rx="0.95" ry="0.94"/><path class="cls-3" d="M10.44,89.82a8.56,8.56,0,0,0-5.46,2,.6.6,0,0,0-.08.85.61.61,0,0,0,.86.08A7.33,7.33,0,0,1,10.44,91a.61.61,0,1,0,0-1.21ZM4.1,93.56a.61.61,0,0,0-.84.19,8.42,8.42,0,0,0-.78,1.56.61.61,0,0,0,.36.78.61.61,0,0,0,.79-.35,7.18,7.18,0,0,1,.67-1.33A.6.6,0,0,0,4.1,93.56Zm22.81,10a.6.6,0,0,0-.16.84.61.61,0,0,0,.85.16,8.43,8.43,0,0,0,3.2-4,.61.61,0,0,0-.35-.78.61.61,0,0,0-.79.35A7.22,7.22,0,0,1,26.91,103.6Zm6.47-6.41a10.67,10.67,0,0,0-10.52-9.66H21.68l3.38-1.3A3,3,0,0,0,27,84.12a2.9,2.9,0,0,0-1.16-3.05,3,3,0,0,0-3.62.14,2.75,2.75,0,0,0-.29-.85,3,3,0,0,0-3.09-1.51,3.21,3.21,0,0,0-2.59,3.09v5.6H10.93c-4.86,0-9.79,3.83-10.72,8.56a10.67,10.67,0,0,0,10.36,12.73h12.3a10.67,10.67,0,0,0,10.51-9.54l1.63-1ZM14.9,107.43H10.78A9.44,9.44,0,0,1,1.28,99a9.29,9.29,0,0,1,9.28-10.12h4.38a38.89,38.89,0,0,1,1.12,9.16A38.94,38.94,0,0,1,14.9,107.43Zm7.79-25a1.73,1.73,0,0,1,2.4-.39,1.7,1.7,0,0,1-.38,3l-5.37,2.06Zm-5.07-.71a1.72,1.72,0,0,1,3.23-.81,1.67,1.67,0,0,1-.07,1.74L18.4,86.26l-.78,1.07Zm3.13,25.71H18.09a41.45,41.45,0,0,0,0-18.51h2.66a38.91,38.91,0,0,1,1.12,9.16A38.94,38.94,0,0,1,20.75,107.43Zm3.2-.1A41.45,41.45,0,0,0,24,89a9.24,9.24,0,0,1,0,18.36Z"/><path class="cls-3" d="M118.25,176.8a1,1,0,1,0,1,1A1,1,0,0,0,118.25,176.8Zm6.58,0a1,1,0,1,0,1,1A1,1,0,0,0,124.83,176.8ZM123.23,180a.56.56,0,0,0-.56.56,1.13,1.13,0,0,1-2.26,0,.56.56,0,0,0-1.12,0,2.25,2.25,0,0,0,4.49,0A.56.56,0,0,0,123.23,180Z"/><ellipse class="cls-3" cx="126.28" cy="181.41" rx="1.14" ry="1.13"/><ellipse class="cls-3" cx="116.79" cy="181.41" rx="1.14" ry="1.13"/><path class="cls-3" d="M123.73,169.24a10.27,10.27,0,0,0-6.55,2.35.72.72,0,0,0-.09,1,.74.74,0,0,0,1,.09,8.8,8.8,0,0,1,5.61-2,.73.73,0,1,0,0-1.46Zm-7.62,4.48a.74.74,0,0,0-1,.22,10.11,10.11,0,0,0-.94,1.87.73.73,0,0,0,.43.94.74.74,0,0,0,.94-.43,8.63,8.63,0,0,1,.8-1.6A.73.73,0,0,0,116.12,173.72Zm27.38,12.05a.72.72,0,0,0-.2,1,.74.74,0,0,0,1,.2,10.12,10.12,0,0,0,3.84-4.82.73.73,0,0,0-.43-.94.74.74,0,0,0-.95.42A8.67,8.67,0,0,1,143.49,185.78Zm7.76-7.69a12.8,12.8,0,0,0-12.62-11.59h-1.42l4.06-1.56a3.64,3.64,0,0,0,2.3-2.53,3.48,3.48,0,0,0-1.39-3.66,3.58,3.58,0,0,0-4.35.16,3.3,3.3,0,0,0-.35-1,3.61,3.61,0,0,0-3.71-1.81,3.85,3.85,0,0,0-3.11,3.7v6.72h-6.35c-5.83,0-11.75,4.59-12.87,10.27A12.8,12.8,0,0,0,123.88,192h14.76a12.8,12.8,0,0,0,12.61-11.45l2-1.25Zm-22.17,12.28h-4.95a11.33,11.33,0,0,1-11.4-10.07,11.15,11.15,0,0,1,11.14-12.14h5.26a45.82,45.82,0,0,1-.05,22.21Zm9.35-30a2.07,2.07,0,0,1,2.88-.47,2,2,0,0,1-.46,3.57l-6.45,2.48Zm-6.09-.85a2.06,2.06,0,0,1,3.87-1,2,2,0,0,1-.09,2.09L133.27,165l-.93,1.29Zm3.76,30.85h-3.19a49.74,49.74,0,0,0,.05-22.21h3.19a45.82,45.82,0,0,1-.05,22.21Zm3.85-.12a49.74,49.74,0,0,0,.06-22,11.09,11.09,0,0,1-.06,22Z"/><path class="cls-3" d="M74.27,49.12a1,1,0,1,0,1,1A1,1,0,0,0,74.27,49.12Zm6.58,0a1,1,0,1,0,1,1A1,1,0,0,0,80.85,49.12Zm-1.61,3.22a.56.56,0,0,0-.56.56,1.13,1.13,0,0,1-2.26,0,.56.56,0,0,0-1.12,0,2.25,2.25,0,0,0,4.49,0A.56.56,0,0,0,79.25,52.34Z"/><ellipse class="cls-3" cx="82.3" cy="53.73" rx="1.14" ry="1.13"/><ellipse class="cls-3" cx="72.81" cy="53.73" rx="1.14" ry="1.13"/><path class="cls-3" d="M79.75,41.56a10.27,10.27,0,0,0-6.55,2.35.72.72,0,0,0-.09,1,.74.74,0,0,0,1,.09,8.8,8.8,0,0,1,5.61-2,.73.73,0,1,0,0-1.46ZM72.14,46a.74.74,0,0,0-1,.22,10.11,10.11,0,0,0-.94,1.87.73.73,0,0,0,.43.94.74.74,0,0,0,.94-.43,8.63,8.63,0,0,1,.8-1.6A.73.73,0,0,0,72.14,46ZM99.51,58.09a.72.72,0,0,0-.2,1,.74.74,0,0,0,1,.2,10.12,10.12,0,0,0,3.84-4.82.73.73,0,0,0-.43-.94.74.74,0,0,0-.95.42A8.67,8.67,0,0,1,99.51,58.09Zm7.76-7.69A12.8,12.8,0,0,0,94.66,38.81H93.23l4.06-1.56a3.64,3.64,0,0,0,2.3-2.53,3.48,3.48,0,0,0-1.39-3.66,3.58,3.58,0,0,0-4.35.16,3.3,3.3,0,0,0-.35-1,3.61,3.61,0,0,0-3.71-1.81,3.85,3.85,0,0,0-3.11,3.7v6.72H80.33c-5.83,0-11.75,4.59-12.87,10.27A12.8,12.8,0,0,0,79.9,64.35H94.66A12.8,12.8,0,0,0,107.26,52.9l2-1.25ZM85.1,62.68H80.16a11.33,11.33,0,0,1-11.4-10.07A11.15,11.15,0,0,1,79.9,40.48h5.26a45.82,45.82,0,0,1-.05,22.21Zm9.35-30a2.07,2.07,0,0,1,2.88-.47,2,2,0,0,1-.46,3.57l-6.45,2.48Zm-6.09-.85a2.06,2.06,0,0,1,3.87-1A2,2,0,0,1,92.15,33l-2.85,4.33-.93,1.29Zm3.76,30.85H88.93A49.74,49.74,0,0,0,89,40.48h3.19a45.82,45.82,0,0,1-.05,22.21ZM96,62.56a49.74,49.74,0,0,0,.06-22,11.09,11.09,0,0,1-.06,22Z"/><path class="cls-3" d="M95.45,8.65a.4.4,0,1,0,.4.4A.4.4,0,0,0,95.45,8.65Zm2.74,0a.4.4,0,1,0,.4.4A.4.4,0,0,0,98.19,8.65ZM97.52,10a.23.23,0,0,0-.23.23.47.47,0,0,1-.94,0,.23.23,0,0,0-.47,0,.94.94,0,0,0,1.87,0A.23.23,0,0,0,97.52,10Z"/><circle class="cls-3" cx="98.8" cy="10.58" r="0.47"/><circle class="cls-3" cx="94.84" cy="10.58" r="0.47"/><path class="cls-3" d="M94.14,7.46a4.2,4.2,0,0,0-.39.78.3.3,0,0,0,.18.39l.11,0a.31.31,0,0,0,.29-.2,3.58,3.58,0,0,1,.33-.67.3.3,0,0,0-.09-.42A.31.31,0,0,0,94.14,7.46Zm3.6-2a4.28,4.28,0,0,0-2.73,1,.3.3,0,0,0,0,.43.31.31,0,0,0,.43,0,3.67,3.67,0,0,1,2.34-.84.3.3,0,1,0,0-.61ZM106,12.39a.3.3,0,0,0-.08.42.31.31,0,0,0,.42.08,4.22,4.22,0,0,0,1.6-2,.3.3,0,0,0-.18-.39.31.31,0,0,0-.39.18A3.61,3.61,0,0,1,106,12.39Zm3.23-3.21a5.33,5.33,0,0,0-5.26-4.83h-.59L105,3.71a1.52,1.52,0,0,0,1-1.06,1.45,1.45,0,0,0-.58-1.53,1.49,1.49,0,0,0-1.81.07,1.38,1.38,0,0,0-.15-.42A1.5,1.5,0,0,0,101.92,0a1.61,1.61,0,0,0-1.3,1.54v2.8H98a5.68,5.68,0,0,0-5.36,4.28A5.33,5.33,0,0,0,97.8,15h6.15a5.34,5.34,0,0,0,5.25-4.77l.81-.52ZM100,14.31H97.9a4.72,4.72,0,0,1-4.75-4.2A4.65,4.65,0,0,1,97.8,5.05H100a19.1,19.1,0,0,1,0,9.25Zm3.9-12.5a.86.86,0,0,1,1.2-.2.85.85,0,0,1-.19,1.49l-2.69,1Zm-2.54-.35A.86.86,0,0,1,102.94,1a.84.84,0,0,1,0,.87l-1.19,1.8-.39.54Zm1.57,12.85h-1.33a20.73,20.73,0,0,0,0-9.25h1.33a19.09,19.09,0,0,1,0,9.25Zm1.6-.05a20.73,20.73,0,0,0,0-9.18,4.62,4.62,0,0,1,0,9.18Z"/><path class="cls-3" d="M27.07,37.89a.53.53,0,1,0,.54.53A.53.53,0,0,0,27.07,37.89Zm3.66,0a.53.53,0,1,0,.54.53A.53.53,0,0,0,30.73,37.89Zm-.89,1.79a.31.31,0,0,0-.31.31.63.63,0,0,1-1.25,0,.31.31,0,0,0-.62,0,1.25,1.25,0,0,0,2.5,0A.31.31,0,0,0,29.84,39.68Z"/><ellipse class="cls-3" cx="31.53" cy="40.45" rx="0.63" ry="0.63"/><ellipse class="cls-3" cx="26.26" cy="40.45" rx="0.63" ry="0.63"/><path class="cls-3" d="M30.12,33.69A5.71,5.71,0,0,0,26.48,35a.4.4,0,0,0-.05.57.41.41,0,0,0,.57.05,4.89,4.89,0,0,1,3.11-1.12.4.4,0,1,0,0-.81Zm-4.23,2.49a.41.41,0,0,0-.56.12,5.61,5.61,0,0,0-.52,1,.4.4,0,0,0,.24.52l.14,0a.41.41,0,0,0,.38-.26,4.79,4.79,0,0,1,.45-.89A.4.4,0,0,0,25.89,36.18Zm17,4.4a4.82,4.82,0,0,1-1.83,2.29.4.4,0,0,0-.11.56.41.41,0,0,0,.57.11,5.62,5.62,0,0,0,2.14-2.68.4.4,0,0,0-.24-.52A.41.41,0,0,0,42.92,40.58Zm2.48-2a7.11,7.11,0,0,0-7-6.44h-.79l2.25-.87a2,2,0,0,0,1.28-1.41,1.93,1.93,0,0,0-.77-2,2,2,0,0,0-2.42.09,1.84,1.84,0,0,0-.19-.57,2,2,0,0,0-2.06-1A2.14,2.14,0,0,0,34,28.43v3.73H30.44a7.58,7.58,0,0,0-7.15,5.71,7.11,7.11,0,0,0,6.91,8.48h8.2a7.11,7.11,0,0,0,7-6.36l1.09-.7ZM33.09,45.42H30.34A6.29,6.29,0,0,1,24,39.83a6.19,6.19,0,0,1,6.19-6.74h2.92a25.46,25.46,0,0,1,0,12.34Zm5.19-16.67a1.15,1.15,0,0,1,1.6-.26,1.13,1.13,0,0,1-.25,2L36,31.86Zm-3.38-.47a1.15,1.15,0,0,1,2.15-.54,1.11,1.11,0,0,1,0,1.16l-1.59,2.41L34.9,32ZM37,45.42H35.21a27.63,27.63,0,0,0,0-12.34H37a25.46,25.46,0,0,1,0,12.34Zm2.14-.07a27.63,27.63,0,0,0,0-12.24,6.16,6.16,0,0,1,0,12.24Z"/><path class="cls-3" d="M145.86,92.39a.53.53,0,1,0,.54.53A.53.53,0,0,0,145.86,92.39Zm3.66,0a.53.53,0,1,0,.54.53A.53.53,0,0,0,149.51,92.39Zm-.89,1.79a.31.31,0,0,0-.31.31.63.63,0,0,1-1.25,0,.31.31,0,0,0-.62,0,1.25,1.25,0,0,0,2.5,0A.31.31,0,0,0,148.62,94.18Z"/><ellipse class="cls-3" cx="150.32" cy="94.95" rx="0.63" ry="0.63"/><ellipse class="cls-3" cx="145.05" cy="94.95" rx="0.63" ry="0.63"/><path class="cls-3" d="M148.9,88.19a5.71,5.71,0,0,0-3.64,1.31.4.4,0,0,0-.05.57.41.41,0,0,0,.57.05A4.89,4.89,0,0,1,148.9,89a.4.4,0,1,0,0-.81Zm-4.23,2.49a.41.41,0,0,0-.56.12,5.61,5.61,0,0,0-.52,1,.4.4,0,0,0,.24.52l.14,0a.41.41,0,0,0,.38-.26,4.79,4.79,0,0,1,.45-.89A.4.4,0,0,0,144.67,90.68Zm17,4.4a4.82,4.82,0,0,1-1.83,2.29.4.4,0,0,0-.11.56.41.41,0,0,0,.57.11,5.62,5.62,0,0,0,2.14-2.68.4.4,0,0,0-.24-.52A.41.41,0,0,0,161.71,95.08Zm2.48-2a7.11,7.11,0,0,0-7-6.44h-.79l2.25-.87a2,2,0,0,0,1.28-1.41,1.93,1.93,0,0,0-.77-2,2,2,0,0,0-2.42.09,1.84,1.84,0,0,0-.19-.57,2,2,0,0,0-2.06-1,2.14,2.14,0,0,0-1.73,2.06v3.73h-3.53a7.58,7.58,0,0,0-7.15,5.71,7.11,7.11,0,0,0,6.91,8.48h8.2a7.11,7.11,0,0,0,7-6.36l1.09-.7Zm-12.32,6.82h-2.75a6.29,6.29,0,0,1-6.33-5.59A6.19,6.19,0,0,1,149,87.59h2.92a25.46,25.46,0,0,1,0,12.34Zm5.19-16.67a1.15,1.15,0,0,1,1.6-.26,1.13,1.13,0,0,1-.25,2l-3.58,1.38Zm-3.38-.47a1.15,1.15,0,0,1,2.15-.54,1.11,1.11,0,0,1,0,1.16l-1.59,2.41-.52.72Zm2.09,17.14H154a27.63,27.63,0,0,0,0-12.34h1.77a25.46,25.46,0,0,1,0,12.34Zm2.14-.07a27.63,27.63,0,0,0,0-12.24,6.16,6.16,0,0,1,0,12.24Z"/><path class="cls-3" d="M184.42,146.37a.53.53,0,1,0,.54.53A.53.53,0,0,0,184.42,146.37Zm3.66,0a.53.53,0,1,0,.54.53A.53.53,0,0,0,188.07,146.37Zm-.89,1.79a.31.31,0,0,0-.31.31.63.63,0,0,1-1.25,0,.31.31,0,0,0-.62,0,1.25,1.25,0,0,0,2.5,0A.31.31,0,0,0,187.18,148.16Z"/><ellipse class="cls-3" cx="188.88" cy="148.94" rx="0.63" ry="0.63"/><ellipse class="cls-3" cx="183.61" cy="148.94" rx="0.63" ry="0.63"/><path class="cls-3" d="M187.46,142.17a5.71,5.71,0,0,0-3.64,1.31.4.4,0,0,0-.05.57.41.41,0,0,0,.57.05,4.89,4.89,0,0,1,3.11-1.12.4.4,0,1,0,0-.81Zm-4.23,2.49a.41.41,0,0,0-.56.12,5.61,5.61,0,0,0-.52,1,.4.4,0,0,0,.24.52l.14,0a.41.41,0,0,0,.38-.26,4.79,4.79,0,0,1,.45-.89A.4.4,0,0,0,183.23,144.66Zm17,4.4a4.82,4.82,0,0,1-1.83,2.29.4.4,0,0,0-.11.56.41.41,0,0,0,.57.11,5.62,5.62,0,0,0,2.14-2.68.4.4,0,0,0-.24-.52A.41.41,0,0,0,200.27,149.07Zm2.48-2a7.11,7.11,0,0,0-7-6.44H195l2.25-.87a2,2,0,0,0,1.28-1.41,1.93,1.93,0,0,0-.77-2,2,2,0,0,0-2.42.09,1.84,1.84,0,0,0-.19-.57,2,2,0,0,0-2.06-1,2.14,2.14,0,0,0-1.73,2.06v3.73h-3.53a7.58,7.58,0,0,0-7.15,5.71,7.11,7.11,0,0,0,6.91,8.48h8.2a7.11,7.11,0,0,0,7-6.36l1.09-.7Zm-12.32,6.82h-2.75a6.29,6.29,0,0,1-6.33-5.59,6.19,6.19,0,0,1,6.19-6.74h2.92a25.46,25.46,0,0,1,0,12.34Zm5.19-16.67a1.15,1.15,0,0,1,1.6-.26,1.13,1.13,0,0,1-.25,2l-3.58,1.38Zm-3.38-.47a1.15,1.15,0,0,1,2.15-.54,1.11,1.11,0,0,1,0,1.16l-1.59,2.41-.52.72Zm2.09,17.14h-1.77a27.63,27.63,0,0,0,0-12.34h1.77a25.46,25.46,0,0,1,0,12.34Zm2.14-.07a27.63,27.63,0,0,0,0-12.24,6.16,6.16,0,0,1,0,12.24Z"/><path class="cls-3" d="M70.16,193.12a.4.4,0,1,0,.4.4A.4.4,0,0,0,70.16,193.12Zm2.74,0a.4.4,0,1,0,.4.4A.4.4,0,0,0,72.9,193.12Zm-.67,1.34a.23.23,0,0,0-.23.23.47.47,0,0,1-.94,0,.23.23,0,0,0-.47,0,.94.94,0,0,0,1.87,0A.23.23,0,0,0,72.23,194.46Z"/><circle class="cls-3" cx="73.5" cy="195.04" r="0.47"/><circle class="cls-3" cx="69.55" cy="195.04" r="0.47"/><path class="cls-3" d="M68.84,191.93a4.2,4.2,0,0,0-.39.78.3.3,0,0,0,.18.39l.11,0a.31.31,0,0,0,.29-.2,3.58,3.58,0,0,1,.33-.67.3.3,0,0,0-.09-.42A.31.31,0,0,0,68.84,191.93Zm3.6-2a4.28,4.28,0,0,0-2.73,1,.3.3,0,0,0,0,.43.31.31,0,0,0,.43,0,3.67,3.67,0,0,1,2.34-.84.3.3,0,1,0,0-.61Zm8.23,6.89a.3.3,0,0,0-.08.42.31.31,0,0,0,.42.08,4.22,4.22,0,0,0,1.6-2,.3.3,0,0,0-.18-.39.31.31,0,0,0-.39.18A3.61,3.61,0,0,1,80.67,196.86Zm3.23-3.21a5.33,5.33,0,0,0-5.26-4.83h-.59l1.69-.65a1.52,1.52,0,0,0,1-1.06,1.45,1.45,0,0,0-.58-1.53,1.49,1.49,0,0,0-1.81.07,1.38,1.38,0,0,0-.15-.42,1.5,1.5,0,0,0-1.54-.75,1.61,1.61,0,0,0-1.3,1.54v2.8H72.68a5.68,5.68,0,0,0-5.36,4.28,5.33,5.33,0,0,0,5.18,6.36h6.15a5.34,5.34,0,0,0,5.25-4.77l.81-.52Zm-9.24,5.12H72.61a4.72,4.72,0,0,1-4.75-4.2,4.65,4.65,0,0,1,4.64-5.06h2.19a19.1,19.1,0,0,1,0,9.25Zm3.9-12.5a.86.86,0,0,1,1.2-.2.85.85,0,0,1-.19,1.49l-2.69,1ZM76,185.92a.86.86,0,0,1,1.61-.41.84.84,0,0,1,0,.87l-1.19,1.8-.39.54Zm1.57,12.85H76.26a20.73,20.73,0,0,0,0-9.25h1.33a19.09,19.09,0,0,1,0,9.25Zm1.6-.05a20.73,20.73,0,0,0,0-9.18,4.62,4.62,0,0,1,0,9.18Z"/><path class="cls-3" d="M193.75,67.27a.4.4,0,1,0,.4.4A.4.4,0,0,0,193.75,67.27Zm2.74,0a.4.4,0,1,0,.4.4A.4.4,0,0,0,196.49,67.27Zm-.67,1.34a.23.23,0,0,0-.23.23.47.47,0,0,1-.94,0,.23.23,0,0,0-.47,0,.94.94,0,0,0,1.87,0A.23.23,0,0,0,195.82,68.62Z"/><circle class="cls-3" cx="197.1" cy="69.2" r="0.47"/><circle class="cls-3" cx="193.14" cy="69.2" r="0.47"/><path class="cls-3" d="M192.44,66.09a4.2,4.2,0,0,0-.39.78.3.3,0,0,0,.18.39l.11,0a.31.31,0,0,0,.29-.2,3.58,3.58,0,0,1,.33-.67.3.3,0,0,0-.09-.42A.31.31,0,0,0,192.44,66.09Zm3.6-2a4.28,4.28,0,0,0-2.73,1,.3.3,0,0,0,0,.43.31.31,0,0,0,.43,0,3.67,3.67,0,0,1,2.34-.84.3.3,0,1,0,0-.61ZM204.27,71a.3.3,0,0,0-.08.42.31.31,0,0,0,.42.08,4.22,4.22,0,0,0,1.6-2,.3.3,0,0,0-.18-.39.31.31,0,0,0-.39.18A3.61,3.61,0,0,1,204.27,71Zm3.23-3.21A5.33,5.33,0,0,0,202.24,63h-.59l1.69-.65a1.52,1.52,0,0,0,1-1.06,1.45,1.45,0,0,0-.58-1.53,1.49,1.49,0,0,0-1.81.07,1.38,1.38,0,0,0-.15-.42,1.5,1.5,0,0,0-1.54-.75,1.61,1.61,0,0,0-1.3,1.54V63h-2.65a5.68,5.68,0,0,0-5.36,4.28,5.33,5.33,0,0,0,5.18,6.36h6.15a5.34,5.34,0,0,0,5.25-4.77l.81-.52Zm-9.24,5.12H196.2a4.72,4.72,0,0,1-4.75-4.2,4.65,4.65,0,0,1,4.64-5.06h2.19a19.1,19.1,0,0,1,0,9.25Zm3.9-12.5a.86.86,0,0,1,1.2-.2.85.85,0,0,1-.19,1.49l-2.69,1Zm-2.54-.35a.86.86,0,0,1,1.61-.41.84.84,0,0,1,0,.87L200,62.34l-.39.54Zm1.57,12.85h-1.33a20.73,20.73,0,0,0,0-9.25h1.33a19.09,19.09,0,0,1,0,9.25Zm1.6-.05a20.73,20.73,0,0,0,0-9.18,4.62,4.62,0,0,1,0,9.18Z"/></g></g></svg>