<svg id="bg" xmlns="http://www.w3.org/2000/svg" xmlns:xlink="http://www.w3.org/1999/xlink" viewBox="0 0 1920 6500"><defs><style>.cls-1{fill:#ffdf00;}.cls-2{fill:url(#radial-gradient);}.cls-3,.cls-6{opacity:0.1;}.cls-3{fill:url(#linear-gradient);}.cls-4{fill:url(#radial-gradient-2);}.cls-5{fill:url(#radial-gradient-3);}.cls-6{fill:url(#linear-gradient-2);}</style><radialGradient id="radial-gradient" cx="316.38" cy="3982.78" r="1164.67" gradientTransform="translate(0 -211.61) scale(1 1.09)" gradientUnits="userSpaceOnUse"><stop offset="0" stop-color="#ffdf00"/><stop offset="0.39" stop-color="#fcdd00"/><stop offset="0.63" stop-color="#f4d601"/><stop offset="0.82" stop-color="#e6ca03"/><stop offset="0.99" stop-color="#d2b906"/><stop offset="1" stop-color="#d0b706"/></radialGradient><linearGradient id="linear-gradient" x1="1132.22" y1="1885.28" x2="874.74" y2="1262.74" gradientUnits="userSpaceOnUse"><stop offset="0" stop-color="#ffdf00"/><stop offset="1"/></linearGradient><radialGradient id="radial-gradient-2" cx="1408.23" cy="2736.65" fx="1372.9912144795592" r="873.7" gradientTransform="matrix(1, -0.01, 0.01, 0.83, 155.02, 475.64)" gradientUnits="userSpaceOnUse"><stop offset="0" stop-color="#ffdf00"/><stop offset="0.33" stop-color="#fbdc01"/><stop offset="0.65" stop-color="#efd202"/><stop offset="0.97" stop-color="#dbc106"/><stop offset="1" stop-color="#d9bf06"/></radialGradient><radialGradient id="radial-gradient-3" cx="743.65" cy="1027.58" r="1437.47" gradientTransform="matrix(0.91, -0.44, 0.24, 0.59, -186.48, 620.66)" gradientUnits="userSpaceOnUse"><stop offset="0" stop-color="#ffdf00"/><stop offset="0.33" stop-color="#fcdc00"/><stop offset="0.59" stop-color="#f2d402"/><stop offset="0.83" stop-color="#e1c504"/><stop offset="1" stop-color="#d0b706"/></radialGradient><linearGradient id="linear-gradient-2" x1="676.1" y1="21.23" x2="694.46" y2="688.67" xlink:href="#linear-gradient"/></defs><title>bg</title><rect class="cls-1" width="1920" height="6500"/><path class="cls-2" d="M0,5234.66s83-145.33,405-190.23,721.84-505,616.8-1063.72c-41.24-345.46-269.24-449.42-269.24-449.42-165.31-46.86-218.36-246.74-400.47-307.66S0,3301.6,0,3301.6v374.67s367.5-229.16,546.08-8.74c32.9,40.61,195.28,126.55,238.08,250.31C1082.92,4761.13,0,4753.64,0,4923.22v311.43Z" transform="translate(0 580.19)"/><path class="cls-3" d="M1500.23,1198.36c-65.23,118.31-141.37,195.3-309.11,250.45-283.91,93.36-330.75,321.2-545.6,363.64C485,1844.16,159,1823,0,1663.44v358.46s690.11,113.06,879.09,2.24c193-113.17,158.78-254.09,381-399.48,141.07-92.31,311.1-205.31,361.92-330.79,51-125.9,246.12-124.18,298-161.72V915.87s-51.15,71.44-118.16,107.3C1692.42,1081.73,1540.69,1125,1500.23,1198.36Z" transform="translate(0 580.19)"/><path class="cls-4" d="M1920,3151.27c-173-17.85-331,131.35-549.28,69.22C557,2957.76,983,2250.09,1920,2250.09v230.1s-797.19,37.65-695,303.91c61.32,159.75,164,330,695,195.37v171.8Z" transform="translate(0 580.19)"/><path class="cls-5" d="M1600,449.71c-208.59-162.86-338.06-182-564.91-129C853.68,363.13,867.32,455.93,630.17,523.17,505.25,558.59,113.73,519.66,0,659.2v539.34c0,107.27,197,417.69,601.53,375.74,135.12-28.76,125.51-172.07,300-239.31,116.6-44.94,151.63-.14,298.48-68.38C1682.89,985.33,1808.59,612.57,1600,449.71ZM648,1346.37c-137,68-404,.69-516-148C-48.21,1002.77,66.37,885.59,242.92,835.18c125.49-35.83,282.29-8.39,386.81-84.13C1107.83,404.6,1286.12,434.42,1420,480.29s313.9,394.32-352.17,612.5C856.16,1162.13,685,1328,648,1346.37Z" transform="translate(0 580.19)"/><path class="cls-6" d="M0,425.22c223.63-79.58,405,16.47,652.61-135.75C879.09,138.06,1365,82.8,1365,82.8L1185-211.61s-370.09,165.12-569.06,325C339.12,335.87,135,290.21,0,333.52v91.69Z" transform="translate(0 580.19)"/></svg>