<svg xmlns="http://www.w3.org/2000/svg" xmlns:xlink="http://www.w3.org/1999/xlink" viewBox="0 0 1919.86 4432.93"><defs><style>.cls-1{fill:#ffdf00;}.cls-2{fill:url(#radial-gradient);}.cls-3,.cls-6{opacity:0.1;}.cls-3{fill:url(#linear-gradient);}.cls-4{fill:url(#radial-gradient-2);}.cls-5{fill:url(#radial-gradient-3);}.cls-6{fill:url(#linear-gradient-2);}.cls-7{fill:url(#linear-gradient-3);}</style><radialGradient id="radial-gradient" cx="462.99" cy="3683.77" r="862.19" gradientTransform="translate(0.07 -210.1) scale(1 1.08)" gradientUnits="userSpaceOnUse"><stop offset="0" stop-color="#ffdf00"/><stop offset="0.39" stop-color="#fcdd00"/><stop offset="0.63" stop-color="#f4d601"/><stop offset="0.82" stop-color="#e6ca03"/><stop offset="0.99" stop-color="#d2b906"/><stop offset="1" stop-color="#d0b706"/></radialGradient><linearGradient id="linear-gradient" x1="1132.06" y1="1884.34" x2="874.65" y2="1261.97" gradientUnits="userSpaceOnUse"><stop offset="0" stop-color="#ffdf00"/><stop offset="1"/></linearGradient><radialGradient id="radial-gradient-2" cx="1408.16" cy="2735.36" fx="1372.9228500454783" r="873.7" gradientTransform="matrix(1, -0.01, 0.01, 0.83, 155.08, 476.49)" gradientUnits="userSpaceOnUse"><stop offset="0" stop-color="#ffdf00"/><stop offset="0.33" stop-color="#fbdc01"/><stop offset="0.65" stop-color="#efd202"/><stop offset="0.97" stop-color="#dbc106"/><stop offset="1" stop-color="#d9bf06"/></radialGradient><radialGradient id="radial-gradient-3" cx="743.58" cy="1026.28" r="1437.47" gradientTransform="matrix(0.91, -0.44, 0.24, 0.59, -186.09, 621.1)" gradientUnits="userSpaceOnUse"><stop offset="0" stop-color="#ffdf00"/><stop offset="0.33" stop-color="#fcdc00"/><stop offset="0.59" stop-color="#f2d402"/><stop offset="0.83" stop-color="#e1c504"/><stop offset="1" stop-color="#d0b706"/></radialGradient><linearGradient id="linear-gradient-2" x1="679.56" y1="148.94" x2="691.83" y2="594.68" xlink:href="#linear-gradient"/><linearGradient id="linear-gradient-3" x1="1542.13" y1="368.47" x2="1760.96" y2="-42.23" gradientUnits="userSpaceOnUse"><stop offset="0" stop-color="#ffdf00"/><stop offset="1" stop-color="#d0b706"/></linearGradient></defs><title>bg</title><g id="Layer_2" data-name="Layer 2"><g id="bg"><rect class="cls-1" x="0.1" y="0.23" width="1919.66" height="4432.17"/><path class="cls-2" d="M279,4432.49c234.7-.09,812.89,32.93,742.68-454-41.23-345.23-269.17-449.12-269.17-449.12-165.26-46.83-218.3-246.58-400.37-307.45s-352,77.91-352,77.91v374.42s367.41-229,545.94-8.74c32.89,40.58,195.23,126.46,238,250.14C944.38,4366,294.93,4344.78.1,4344.78v87.62Z"/><path class="cls-3" d="M1500.13,1197.78C1434.9,1316,1358.76,1393,1191,1448.11c-283.89,93.31-330.72,321-545.56,363.46C485,1843.26,159,1822.09,0,1662.63v358.29s690.06,113,879,2.23c193-113.12,158.76-254,381-399.29,141.06-92.26,311.07-205.21,361.9-330.62,51-125.84,246.1-124.12,298-161.64V915.42s-51.14,71.41-118.15,107.25C1692.3,1081.2,1540.58,1124.44,1500.13,1197.78Z"/><path class="cls-4" d="M1919.86,3149.73c-173-17.84-331,131.29-549.24,69.18C557,2956.32,982.93,2249,1919.86,2249v230s-797.13,37.63-695,303.76c61.31,159.68,164,329.79,695,195.27Z"/><path class="cls-5" d="M1599.89,449.49c-208.57-162.78-338-181.89-564.87-128.9C853.62,363,867.26,455.71,630.12,522.92c-124.91,35.4-516.4-3.52-630.12,136V1198c0,107.22,197,417.49,601.49,375.56,135.11-28.74,125.5-172,300-239.2,116.59-44.92,151.61-.14,298.46-68.34C1682.77,984.85,1808.46,612.27,1599.89,449.49ZM648,1345.71c-137,67.94-404,.69-516-147.93-180.19-195.5-65.62-312.62,110.92-363,125.48-35.81,282.27-8.39,386.78-84.09C1107.75,404.4,1286,434.21,1419.9,480.06s313.87,394.13-352.15,612.2C856.1,1161.57,685,1327.36,648,1345.71Z"/><path class="cls-6" d="M0,425c223.61-79.54,405,16.46,652.56-135.69C879,138,1364.9,82.76,1364.9,82.76L1314.28,0H780.8C721,36.53,663.53,75.09,615.89,113.36,339.1,335.71,135,290.07,0,333.36Z"/><path class="cls-7" d="M1291.5,291.75s50.77-16.14,122.59,13.16c79.77,32.54,185.51,110.87,276.52,110.87,173,0,229.25-61.7,229.25-61.7V207.15s-111.78,99.44-260.34,89.37S1435.61,166.83,1258,207.15Z"/></g></g></svg>