<svg id="Layer_1" data-name="Layer 1" xmlns="http://www.w3.org/2000/svg" viewBox="0 0 156 176.3"><defs><style>.cls-1{fill:none;stroke:#ffdf00;stroke-miterlimit:10;stroke-width:2px;}.cls-2,.cls-4{opacity:0.3;}.cls-3,.cls-4{fill:#ffdf00;}</style></defs><title>emerald</title><polygon class="cls-1" points="1 44.65 78 1.15 155 44.65 155 131.65 78 175.15 1 131.65 1 44.65"/><polygon class="cls-1" points="21 55.23 78 22.31 135 55.23 135 121.07 78 153.99 21 121.07 21 55.23"/><line class="cls-1" x1="78" y1="1.15" x2="78" y2="22.31"/><line class="cls-1" x1="1" y1="44.65" x2="21" y2="55.23"/><line class="cls-1" x1="1" y1="131.65" x2="21" y2="121.07"/><line class="cls-1" x1="78" y1="175.15" x2="78" y2="153.99"/><line class="cls-1" x1="135" y1="121.07" x2="155" y2="131.65"/><line class="cls-1" x1="135" y1="55.23" x2="155" y2="44.65"/><polygon class="cls-1" points="1 44.65 78 1.15 155 44.65 155 131.65 78 175.15 1 131.65 1 44.65"/><g class="cls-2"><polygon class="cls-3" points="9.13 136.24 1 131.65 1 122.46 146.87 40.05 155 44.65 155 53.84 9.13 136.24"/></g><g class="cls-2"><polygon class="cls-3" points="1 114.08 1 104.89 131.31 31.27 139.45 35.86 1 114.08"/></g><polygon class="cls-4" points="135 121.07 78 153.99 21 121.07 1 131.65 78 175.15 155 131.65 155 44.65 135 55.23 135 121.07"/></svg>