<svg id="Layer_1" data-name="Layer 1" xmlns="http://www.w3.org/2000/svg" viewBox="0 0 142.3 36.98"><defs><style>.cls-1{fill:#fff;}.cls-2{fill:none;stroke:#fff;stroke-miterlimit:10;stroke-width:2px;}</style></defs><title>GooglePlay</title><path class="cls-1" d="M640.81,4775.1a5.12,5.12,0,1,0,5.14,5.12A5.05,5.05,0,0,0,640.81,4775.1Zm0,8.23a3.11,3.11,0,1,1,2.89-3.11A3,3,0,0,1,640.81,4783.33Zm-11.22-8.23a5.12,5.12,0,1,0,5.14,5.12A5.05,5.05,0,0,0,629.59,4775.1Zm0,8.23a3.11,3.11,0,1,1,2.89-3.11A3,3,0,0,1,629.59,4783.33ZM616,4777.25v2h5.45a4.59,4.59,0,0,1-1.18,2.54,5.32,5.32,0,0,1-4,1.49,5.82,5.82,0,0,1,0-11.64,5.54,5.54,0,0,1,3.92,1.54l1.53-1.54a7.58,7.58,0,0,0-5.45-2.2,8,8,0,1,0,0,15.91,7.28,7.28,0,0,0,5.55-2.23,6.54,6.54,0,0,0,1.88-4.8,2.62,2.62,0,0,0-.12-1.07H616Zm54.83,1.11a4.76,4.76,0,0,0-4.39-3.26,4.87,4.87,0,0,0-4.83,5.12,5,5,0,0,0,5.09,5.12,5.1,5.1,0,0,0,4.27-2.27l-1.75-1.16a2.93,2.93,0,0,1-2.52,1.42,2.61,2.61,0,0,1-2.48-1.55l6.85-2.83Zm-7,1.71a2.81,2.81,0,0,1,2.68-3,2,2,0,0,1,1.9,1.09Zm-5.84,5.18h3v-15h-3v15Zm-4-9h0.51c-0.5-1-1.48-1.15-2.7-1.15a5.14,5.14,0,0,0,0,10.28c1.22,0,2.19-.13,2.7-1.13H654v0.67c0,2-.76,3-2.44,3a2.63,2.63,0,0,1-2.44-1.82l-1.89.82a5.16,5.16,0,0,0,4.72,3c2.64,0,5-1.55,5-5.34v-9.36h-3v1Zm-2,7.08a3.12,3.12,0,0,1,0-6.21A3.13,3.13,0,0,1,652,4783.33Zm29.37-13.08H676v15h2v-5h3.38A5,5,0,0,0,681.38,4770.25Zm0.06,7H678v-5h3.43A2.5,2.5,0,1,1,681.43,4777.25Zm13.94-2.18a4.26,4.26,0,0,0-4,2.31l2,0.83a2.33,2.33,0,0,1,2.18-1.1c1.16,0,2.49.7,2.49,1.94v0.16c0-.23-1.41-0.58-2.48-0.58-2.15,0-4.41,1.18-4.41,3.39a3.61,3.61,0,0,0,3.71,3.51c1.51,0,2.31-.27,2.83-1.27H698v1h2v-6C700,4776.57,698,4775.08,695.38,4775.08Zm-0.32,8.25c-0.74,0-1.76-.37-1.76-1.28,0-1.16,1.28-1.61,2.38-1.61a4,4,0,0,1,2.05.5A2.73,2.73,0,0,1,695.05,4783.33Zm12.75-8.08-2.58,7h-0.08l-2.67-7h-2.42l4,9.52-2.29,5.48h2.34l6.18-15h-2.5Zm-20.8,10h3v-15h-3v15Z" transform="translate(-568 -4760.09)"/><path class="cls-2" d="M569.69,4761.63a2.73,2.73,0,0,0-.69,1.9v30a2.73,2.73,0,0,0,.69,1.9l0.31,0.1,17-16.78v-0.4l-17-16.78Z" transform="translate(-568 -4760.09)"/><path class="cls-2" d="M592.35,4784.38l-5.72-5.72v-0.14l5.72-5.72,0.13,0.07,6.63,3.77c1.89,1.08,1.89,2.84,0,3.91l-6.63,3.77Z" transform="translate(-568 -4760.09)"/><path class="cls-2" d="M592.35,4784.38l-5.72-5.72-16.88,16.88c0.62,0.66,1.65.74,2.81,0.08l19.79-11.24" transform="translate(-568 -4760.09)"/><path class="cls-2" d="M592.35,4772.79l-19.79-11.24c-1.16-.66-2.19-0.58-2.81.08l16.88,16.88Z" transform="translate(-568 -4760.09)"/></svg>