<?xml version="1.0" encoding="utf-8"?>
<!-- Generator: Adobe Illustrator 21.0.0, SVG Export Plug-In . SVG Version: 6.00 Build 0)  -->
<svg version="1.1" id="Layer_1" xmlns="http://www.w3.org/2000/svg" xmlns:xlink="http://www.w3.org/1999/xlink" x="0px" y="0px"
	 viewBox="0 0 304 304" style="enable-background:new 0 0 304 304;" xml:space="preserve">
<style type="text/css">
	.st0{fill:#FFFFFF;}
	.st1{fill:#FFDF00;}
</style>
<symbol  id="New_Symbol" viewBox="-229 -229 457 457">
	<path class="st0" d="M-166.1-229h331.2c34.7,0,62.9,28.2,62.9,62.9v331.2c0,34.7-28.2,62.9-62.9,62.9h-331.2
		c-34.7,0-62.9-28.2-62.9-62.9v-331.2C-229-200.8-200.8-229-166.1-229z"/>
	<g id="_Group__2_">
		<polygon class="st0" points="66.4,60 89.5,100 66.4,140 20.3,140 -2.8,100 20.3,60 		"/>
		<polygon class="st0" points="-20.5,10 2.6,50 -20.5,90 -66.6,90 -89.7,50 -66.6,10 		"/>
		<polygon class="st0" points="-107,-140 -84,-100.5 -107,-61 -153.2,-61 -176.3,-100.5 -153.2,-140 		"/>
		<polygon class="st0" points="-20.5,-90 2.6,-50.5 -20.5,-11 -66.6,-11 -89.7,-50.5 -66.6,-90 		"/>
		<polygon class="st0" points="66.4,-40 89.5,0 66.4,40 20.3,40 -2.8,0 20.3,-40 		"/>
		<polygon class="st0" points="153,-90 176.1,-50 153,-10 106.8,-10 83.8,-50 106.8,-90 		"/>
		<path class="st1" d="M196.3-55.3c1.8,3.1,1.8,6.9,0,10L167.4,4.8c-1.8,3.1-5.1,5.1-8.7,5.2h-51.9l2.9-5.2c1.8-3.1,1.8-6.9,0-9.9
			l-2.9-4.9H153l23.1-40L153-90h-46.2L83.8-50.2l-2.9-4.9c-1.8-3.1-5.1-4.9-8.7-4.9h-5.8l26-45c1.8-3.1,5.1-5,8.7-5h57.7
			c3.6-0.1,6.9,1.8,8.7,4.9L196.3-55.3z"/>
		<path class="st1" d="M109.7-5.3c1.8,3.2,1.8,7,0,10.2l-2.9,5.2h-5.8c-3.6-0.1-6.9-2-8.7-5.2l-2.9-5.1l-23.1-40l-2.9-5
			c-1.8-3-1.8-6.8,0-9.9l2.9-4.9h5.8c3.5-0.1,6.9,1.8,8.7,4.9l2.9,4.9l23.1,39.9L109.7-5.3z"/>
		<path class="st1" d="M106.8,10L83.7,49.9L80.9,45c-1.8-3.1-5.1-5-8.7-5h-5.7v-0.4l23-40l2.9,5.2c1.8,3.1,5,5.1,8.6,5.2L106.8,10
			L106.8,10z"/>
		<path class="st1" d="M80.9,44.9l2.8,4.9l-2.8,5.1c-1.8,3.1-5.1,5.1-8.7,5.2H19.9l2.9-5.2c1.8-3.1,1.8-6.9,0-10L20,40h52.2
			C75.8,40,79.1,41.9,80.9,44.9z"/>
		<path class="st1" d="M66.4-40.3l23.1,40L66.4-40.3z"/>
		<path class="st1" d="M22.8-55.4c1.8,3.1,1.8,6.9,0,9.9l-26,45L-6-5.2c-1.8-3.1-5.1-4.9-8.7-4.9h-5.4l26-45c1.8-3.1,5.1-5,8.7-5H20
			L22.8-55.4z"/>
		<path class="st1" d="M22.8,44.7c1.8,3.1,1.8,7,0,10.1L19.9,60h-5.4c-3.6-0.1-6.9-2-8.7-5.2l-2.8-5L5.9,45c1.8-3.1,5.1-5,8.7-5H20
			L22.8,44.7z"/>
		<path class="st1" d="M66.4,60H20.3l-23.1,40l23.1,40h46.1l23.1-40L66.4,60z M19.9,60h52.3c3.6-0.1,6.9-2,8.7-5.2l2.8-5l26,45
			c1.8,3.1,1.8,6.9,0,10l-28.9,50.1c-1.8,3.1-5.1,5.1-8.7,5.1H14.5c-3.6,0-6.9-1.8-8.7-4.9L-20.2,110h5.5c3.6,0,6.9-1.9,8.7-5
			L19.9,60z"/>
		<path class="st1" d="M-3.2-0.4L20,40h-5.5c-3.6,0-6.9,1.9-8.7,4.9L3,49.6L-20.2,9h5.5c3.5,0.1,6.8-1.7,8.7-4.7L-3.2-0.4z"/>
		<path class="st1" d="M19.9,60l-26,45c-1.8,3.1-5.1,5-8.7,5h-5.5l-2.7-5c-1.8-3.1-1.8-7,0-10.1L3,49.8l2.8,5
			c1.8,3.1,5.1,5.1,8.7,5.2L19.9,60L19.9,60z"/>
		<path class="st1" d="M20.3,40H20L-3.3-0.4l26-45.1c1.8-3,1.8-6.8,0-9.9L20-60h46.4l-2.9,4.9c-1.8,3.1-1.8,7,0,10.1l2.9,5.1H20.3
			L-2.8,0L20.3,40z"/>
		<path class="st1" d="M-6.1-5.2l2.8,4.8l-2.8,4.6c-1.8,3-5.1,4.8-8.7,4.7h-5.5L-23,4.4c-1.8-3-1.8-6.7,0-9.7l2.9-4.7h5.4
			C-11.2-10.1-7.9-8.2-6.1-5.2z"/>
		<path class="st1" d="M-20.1-10L-23-5.2c-1.8,3-1.8,6.7,0,9.7l2.8,4.5h-52.2c-3.5,0.1-6.8-1.7-8.7-4.8l-2.8-4.8l2.8-4.7
			c1.8-3,5.1-4.9,8.7-4.8L-20.1-10L-20.1-10z"/>
		<path class="st1" d="M5.9-55l-26,45h-0.4v-0.6L2.5-50.3l-23-39.7h-46.1l2.9-5.2c1.8-3.1,1.8-6.8,0-9.9l-2.9-4.9h51.9
			c3.6,0,6.9,1.8,8.7,4.9L20-60h-5.5C10.9-60,7.6-58.1,5.9-55z"/>
		<path class="st1" d="M-20.5,90L2.6,50l-23.1-40h-46.1l-23.1,40l23.1,40H-20.5L-20.5,90z M3,49.5l-26,45.2c-1.8,3.2-1.8,7.1,0,10.3
			l2.8,5h-52.2c-3.6-0.1-6.9-2.1-8.7-5.2l-28.9-50.1c-1.8-3.1-1.8-6.9,0-10l26-45.1l2.8,4.7c1.8,3,5.1,4.9,8.7,4.8h52.2L3,49.5z"/>
		<path class="st1" d="M-92.6-155l26,45h-5.8c-3.5-0.1-6.8,1.7-8.7,4.8l-3,5.1l-23-39.9h-46.2l-23.1,39.5l23.1,39.5h46.2l-2.9,5.2
			c-1.8,3.1-1.8,6.8,0,9.9l2.9,4.9h-52c-3.5,0.1-6.8-1.7-8.7-4.8l-28.8-49.9c-1.8-3.1-1.8-6.9,0-9.9l28.9-49.7
			c1.8-3,5.1-4.8,8.6-4.7h57.7C-97.7-160-94.4-158.1-92.6-155z"/>
		<path class="st1" d="M-66.6-11h46.1v1h-51.9c-3.5-0.1-6.9,1.8-8.7,4.8l-2.8,4.6L-107-41h5.8c3.5,0.1,6.8-1.7,8.7-4.8l2.9-5.1
			L-66.6-11z"/>
		<path class="st1" d="M-84-100.5l-23.1,40L-84-100.5z"/>
		<path class="st1" d="M-107-60.5l23.1-40l2.9-4.8c1.8-3,5.1-4.8,8.7-4.8h5.8l2.9,4.8c1.8,3.1,1.8,6.8,0,9.9l-2.9,4.9l-23.1,39.9
			l-2.9,4.7c-1.8,3-5.1,4.8-8.7,4.8h-5.8l-2.9-4.8c-1.8-3.1-1.8-6.8,0-9.9L-107-60.5z"/>
	</g>
	<path d="M-53.4-29c-2.7,0-5-2.1-5.1-4.8v-37c0-2.8,2.3-5.1,5.1-5.1h11.1c9.9,0,14.9,6.5,14.9,13.1c0,4.6-3,7.6-6.9,9.5
		c4.1,1.6,8.2,4.7,8.2,10.4c0,7.7-6.2,13.9-16.4,13.9L-53.4-29L-53.4-29z M-41.8-57c2.8,0,5-2.2,5.1-4.9c0-0.1,0-0.2,0-0.3
		c0-2.5-1.2-4.8-4.6-4.8h-8.2v10H-41.8z M-49.5-49v12h7.5c4.4,0,6.5-2.4,6.5-5.9c0.2-3.2-2.3-6-5.6-6.1c-0.2,0-0.4,0-0.6,0H-49.5z"
		/>
	<path d="M39.5,5.4v2.2c0,2.2,1.8,3.7,5.4,3.7c2.1,0,4.1-0.5,6-1.5c0.6-0.3,1.3-0.4,2-0.4c3.2,0,4.1,2.1,4.1,3.6
		c0,4.6-8.5,5.8-12.7,5.8c-8.7,0-13.8-5-13.8-11.5v-11c0-6.7,5-11.8,14.1-11.8c8.6,0,13,4.6,13,11.2c0,6.3-4,10-12.9,10
		C43,5.8,41.2,5.7,39.5,5.4z M44.5-8.4c-3.2,0-5,1.6-5,4.3v2.8C41.5-1,43.7-1,44.4-1c2.5,0,4.1-0.9,4.1-3.7
		C48.5-7.3,47.1-8.4,44.5-8.4L44.5-8.4z"/>
	<path d="M-47.5,55.4v2.2c0,2.2,1.8,3.7,5.4,3.7c2.1,0,4.1-0.5,6-1.5c0.6-0.3,1.3-0.4,2-0.4c3.2,0,4.1,2.1,4.1,3.6
		c0,4.6-8.5,5.8-12.7,5.8c-8.7,0-13.8-5-13.8-11.5v-11c0-6.7,5-11.8,14.1-11.8c8.6,0,13,4.5,13,11.2c0,6.3-4,10-12.9,10
		C-44,55.8-45.8,55.7-47.5,55.4z M-42.5,41.6c-3.2,0-5,1.6-5,4.3v2.8c2,0.2,4.2,0.3,4.9,0.3c2.5,0,4.1-0.9,4.1-3.7
		C-38.5,42.7-39.9,41.6-42.5,41.6z"/>
</symbol>
<title>Logo</title>
<use xlink:href="#New_Symbol"  width="457" height="457" id="New_Symbol-3" x="-229" y="-229" transform="matrix(0.53 0 0 0.53 152.05 152.28)" style="overflow:visible;"/>
</svg>
