<svg xmlns="http://www.w3.org/2000/svg" xmlns:xlink="http://www.w3.org/1999/xlink" viewBox="0 0 100 100"><defs><style>.cls-1{fill:#ffdf00;}.cls-2{fill:#fff;}.cls-3{fill:#ff9500;}.cls-4{fill:none;}</style><symbol id="Queen_Bee" data-name="Queen Bee" viewBox="0 0 338.59 310.57"><path class="cls-1" d="M131.5,50.76V20.29a6.84,6.84,0,0,1,11.51-5l3.87,3.6a6.84,6.84,0,0,0,9.46-.13l9.76-9.59A6.84,6.84,0,0,1,175.58,9l10.49,9.82a6.84,6.84,0,0,0,9.46-.1l2.91-2.85a6.84,6.84,0,0,1,11.63,4.9V50.76A187.17,187.17,0,0,0,131.5,50.76Z"/><path class="cls-2" d="M184,206.52,261.85,98a39.81,39.81,0,0,1,55.56-9.15h0c25.71,18.45,20.67,58.07-8.84,69.48Z"/><path d="M171.38,216.29,258.14,95.35A44.38,44.38,0,1,1,310.2,162.6ZM294.27,86a35.7,35.7,0,0,0-5.8.48,35,35,0,0,0-22.92,14.24l-68.91,96.07,110.27-42.65A35.26,35.26,0,0,0,294.27,86Z"/><path class="cls-2" d="M73,100.67A35,35,0,0,0,50.12,86.43a35.7,35.7,0,0,0-5.8-.48,35,35,0,0,0-20.47,6.62,35.25,35.25,0,0,0,7.83,61.52L142,196.74Z"/><path d="M80.45,95.35A44.43,44.43,0,0,0,18.53,85.15a44.38,44.38,0,0,0,9.86,77.45l138.82,53.69ZM21.19,88.86h0A39.81,39.81,0,0,1,76.75,98l77.83,108.51L30,158.35C.52,146.93-4.53,107.31,21.19,88.86Z"/><path d="M76.75,98a39.81,39.81,0,0,0-55.56-9.15h0C-4.53,107.31.52,146.93,30,158.35l124.55,48.17ZM9.43,125.66A34.76,34.76,0,0,1,23.85,92.57,35,35,0,0,1,44.32,86a35.7,35.7,0,0,1,5.8.48A35,35,0,0,1,73,100.67L142,196.74,31.68,154.09A34.76,34.76,0,0,1,9.43,125.66Z"/><path class="cls-1" d="M237.81,131v32a289.54,289.54,0,0,1-68.51,8.35,289.54,289.54,0,0,1-68.51-8.35V131a68.51,68.51,0,0,1,137,0Z"/><path class="cls-1" d="M237.32,229.59a68.51,68.51,0,0,1-136,0,310.54,310.54,0,0,0,68,7.58A310.54,310.54,0,0,0,237.32,229.59Z"/><path class="cls-1" d="M237.81,186.51V206a289.55,289.55,0,0,1-68.51,8.36A289.55,289.55,0,0,1,100.79,206V186.51a310.24,310.24,0,0,0,68.51,7.7A310.24,310.24,0,0,0,237.81,186.51Z"/><path d="M145.69,110.81a5.91,5.91,0,1,1,5.91-5.91A5.91,5.91,0,0,1,145.69,110.81Zm46.2-5.91a5.91,5.91,0,1,0-5.91,5.91A5.91,5.91,0,0,0,191.89,104.9Zm-13,17.39a2.74,2.74,0,0,0-5.48,0,7.6,7.6,0,0,1-15.19,0,2.74,2.74,0,1,0-5.48,0,13.07,13.07,0,0,0,26.14,0Z"/><path d="M169.3,53.4A77.71,77.71,0,0,0,91.67,131V221.4a77.75,77.75,0,0,0,68.73,77.13l7.8,12,7.64-11.81a77.73,77.73,0,0,0,71.09-77.36V131A77.71,77.71,0,0,0,169.3,53.4Zm0,236.51a68.61,68.61,0,0,1-68-60.32,310.54,310.54,0,0,0,68,7.58,310.54,310.54,0,0,0,68-7.58A68.61,68.61,0,0,1,169.3,289.91ZM237.81,206a289.55,289.55,0,0,1-68.51,8.36A289.55,289.55,0,0,1,100.79,206V186.51a310.24,310.24,0,0,0,68.51,7.7,310.24,310.24,0,0,0,68.51-7.7Zm0-43a289.54,289.54,0,0,1-68.51,8.35,289.54,289.54,0,0,1-68.51-8.35V131a68.51,68.51,0,0,1,137,0Z"/><circle class="cls-3" cx="194.88" cy="127.46" r="6.97"/><circle class="cls-3" cx="136.75" cy="127.46" r="6.97"/><path class="cls-2" d="M148.4,278.8a4.56,4.56,0,0,1-1.62-.3,63.32,63.32,0,0,1-30.17-23.9,4.56,4.56,0,0,1,7.56-5.11A54.24,54.24,0,0,0,150,270a4.56,4.56,0,0,1-1.62,8.83Zm84.43-145.44a63.6,63.6,0,0,0-14.76-40.71,4.56,4.56,0,1,0-7,5.85,54.46,54.46,0,0,1,12.63,34.86,4.56,4.56,0,0,0,9.13,0ZM204.73,86a4.56,4.56,0,0,0-1.4-6.3,63.44,63.44,0,0,0-11.7-5.84,4.56,4.56,0,1,0-3.21,8.54,54.29,54.29,0,0,1,10,5,4.56,4.56,0,0,0,6.3-1.4Z"/><path d="M208.58,55.32A4.56,4.56,0,0,1,204,50.76V15.4L192.55,26.61a4.56,4.56,0,0,1-6.31.07L169.37,10.88l-16,15.71a4.56,4.56,0,0,1-6.31.08L134.57,15V50.76a4.56,4.56,0,1,1-9.13,0V4.56a4.56,4.56,0,0,1,7.67-3.34l17,15.81,16-15.72a4.56,4.56,0,0,1,6.32-.08L189.29,17,205.39,1.3a4.56,4.56,0,0,1,7.75,3.26v46.2A4.56,4.56,0,0,1,208.58,55.32Z"/></symbol></defs><title>QueenB</title><g id="Layer_2" data-name="Layer 2"><g id="parallax"><rect class="cls-4" width="100" height="100"/><use id="Queen_Bee-3" data-name="Queen Bee" width="338.59" height="310.57" transform="translate(15.61 18.47) scale(0.2 0.2)" xlink:href="#Queen_Bee"/></g></g></svg>