<svg xmlns="http://www.w3.org/2000/svg" viewBox="0 0 100 100"><defs><style>.cls-1{fill:#fff;}.cls-2{fill:#ffdf00;}</style></defs><title>QueenBBG</title><g id="Layer_2" data-name="Layer 2"><g id="parallax"><circle class="cls-1" cx="50" cy="50" r="50"/><path class="cls-2" d="M50,92.68A42.68,42.68,0,1,1,92.7,50,42.74,42.74,0,0,1,50,92.68Zm0-82.36A39.68,39.68,0,1,0,89.7,50,39.74,39.74,0,0,0,50,10.32Z"/><g id="Queen_Bee" data-name="Queen Bee"><path class="cls-2" d="M80.62,35.76A9,9,0,0,0,68,37.83l-2.68,3.74a15.75,15.75,0,0,0-30.72,0L32,37.83a9,9,0,0,0-12.58-2.07,9,9,0,0,0,2,15.72l12.85,5v7a15.79,15.79,0,0,0,14,15.66l1.58,2.44,1.55-2.4A15.78,15.78,0,0,0,65.77,63.42v-7l12.85-5a9,9,0,0,0,2-15.72Z"/><path class="cls-2" d="M42,29.71a.93.93,0,0,0,.93-.93v-.12a37.94,37.94,0,0,1,14.1-.11v.23a.93.93,0,0,0,1.85,0V19.4a.93.93,0,0,0-1.57-.66l-3.27,3.19-3.43-3.21a.93.93,0,0,0-1.28,0L46.1,21.93l-3.45-3.21a.93.93,0,0,0-1.56.68v9.38A.93.93,0,0,0,42,29.71Z"/></g></g></g></svg>